<?xml version="1.0" encoding="UTF-8"?>
<svg xmlns="http://www.w3.org/2000/svg" viewBox="0 0 1520 1960" font-family="-apple-system,Segoe UI,Roboto,Helvetica,Arial,sans-serif">
  <defs>
    <marker id="arrow" markerWidth="10" markerHeight="10" refX="8" refY="3" orient="auto" markerUnits="strokeWidth">
      <path d="M0,0 L8,3 L0,6 Z" fill="#334155"/>
    </marker>
    <marker id="arrowDown" markerWidth="12" markerHeight="12" refX="5" refY="9" orient="auto" markerUnits="strokeWidth">
      <path d="M0,0 L10,0 L5,9 Z" fill="#7c2d12"/>
    </marker>
    <style>
      .title{font-size:30px;font-weight:700;fill:#1c1917}
      .subtitle{font-size:14.5px;fill:#57534e}
      .layerName{font-size:21px;font-weight:700}
      .layerTag{font-size:13px;font-weight:600;opacity:.85}
      .box{rx:7;stroke-width:1.2}
      .boxT{font-size:13.5px;font-weight:650;fill:#1c1917}
      .boxF{font-size:10.5px;fill:#57534e;font-family:ui-monospace,SFMono-Regular,Menlo,monospace}
      .grpName{font-size:14px;font-weight:700;fill:#292524}
      .note{font-size:12.5px;fill:#57534e}
      .flowLbl{font-size:12px;font-weight:600;fill:#7c2d12}
    </style>
  </defs>

  <rect x="0" y="0" width="1520" height="1960" fill="#fafaf9"/>

  <!-- Title -->
  <text x="40" y="44" class="title">OpenClaw · 完整分层架构图</text>
  <text x="40" y="70" class="subtitle">Node.js / TypeScript 多渠道 AI Agent · 配置驱动架构 · 每个子系统标注其在 openclaw.json 配置树 / 目录中的真实键</text>
  <text x="40" y="89" class="subtitle" fill="#a16207">证据来源：Hermes 仓库内的迁移代码 openclaw_to_hermes.py（读取 OpenClaw 全量配置 schema 与目录）+ "Ported from openclaw/openclaw#NNNNN" 溯源注释（Hermes 是 OpenClaw 的 Python 演进版）</text>

  <!-- ============ LAYER 1: CHANNELS / GATEWAY ============ -->
  <rect x="40" y="108" width="1440" height="168" rx="12" fill="#eef2ff" stroke="#6366f1" stroke-width="1.6"/>
  <text x="60" y="136" class="layerName" fill="#4338ca">① 渠道接入层 / Channels &amp; Gateway</text>
  <text x="60" y="156" class="layerTag" fill="#6366f1">config: channels · gateway · 单一网关进程托管全部消息平台（systemd: openclaw-gateway.service）</text>

  <rect x="60" y="168" width="250" height="92" class="box" fill="#fff" stroke="#6366f1" stroke-width="2.2"/>
  <text x="185" y="192" text-anchor="middle" class="boxT">Gateway 进程 (Node.js)</text>
  <text x="185" y="210" text-anchor="middle" class="boxF">openclaw-gateway.service</text>
  <text x="185" y="226" text-anchor="middle" class="boxF">gateway.auth.token · port</text>
  <text x="185" y="244" text-anchor="middle" class="boxF">process: openclaw / clawd</text>

  <g>
    <rect x="330" y="168" width="130" height="44" class="box" fill="#fff" stroke="#818cf8"/>
    <text x="395" y="188" text-anchor="middle" class="boxT">Telegram</text>
    <text x="395" y="204" text-anchor="middle" class="boxF">TELEGRAM_*</text>

    <rect x="472" y="168" width="130" height="44" class="box" fill="#fff" stroke="#818cf8"/>
    <text x="537" y="188" text-anchor="middle" class="boxT">Discord</text>
    <text x="537" y="204" text-anchor="middle" class="boxF">discord</text>

    <rect x="614" y="168" width="130" height="44" class="box" fill="#fff" stroke="#818cf8"/>
    <text x="679" y="188" text-anchor="middle" class="boxT">Slack</text>
    <text x="679" y="204" text-anchor="middle" class="boxF">SLACK_*</text>

    <rect x="756" y="168" width="130" height="44" class="box" fill="#fff" stroke="#818cf8"/>
    <text x="821" y="188" text-anchor="middle" class="boxT">WhatsApp</text>
    <text x="821" y="204" text-anchor="middle" class="boxF">whatsapp</text>

    <rect x="898" y="168" width="130" height="44" class="box" fill="#fff" stroke="#818cf8"/>
    <text x="963" y="188" text-anchor="middle" class="boxT">Signal</text>
    <text x="963" y="204" text-anchor="middle" class="boxF">SIGNAL_*</text>

    <rect x="1040" y="168" width="130" height="44" class="box" fill="#fff" stroke="#818cf8"/>
    <text x="1105" y="188" text-anchor="middle" class="boxT">Matrix</text>
    <text x="1105" y="204" text-anchor="middle" class="boxF">channels</text>

    <rect x="1182" y="168" width="138" height="44" class="box" fill="#fff" stroke="#818cf8"/>
    <text x="1251" y="188" text-anchor="middle" class="boxT">Mattermost</text>
    <text x="1251" y="204" text-anchor="middle" class="boxF">channels</text>

    <rect x="1332" y="168" width="138" height="44" class="box" fill="#fff" stroke="#818cf8"/>
    <text x="1401" y="188" text-anchor="middle" class="boxT">IRC</text>
    <text x="1401" y="204" text-anchor="middle" class="boxF">channels</text>

    <rect x="330" y="220" width="220" height="40" class="box" fill="#fff" stroke="#a5b4fc"/>
    <text x="440" y="245" text-anchor="middle" class="boxT">Gmail 集成 (hooks)</text>

    <rect x="562" y="220" width="300" height="40" class="box" fill="#fff" stroke="#a5b4fc"/>
    <text x="712" y="240" text-anchor="middle" class="boxT">群组 / 深度渠道配置</text>
    <text x="712" y="255" text-anchor="middle" class="boxF" font-size="9.5">channels.* group configs (Matrix/Mattermost/IRC)</text>

    <rect x="874" y="220" width="290" height="40" class="box" fill="#fff" stroke="#a5b4fc"/>
    <text x="1019" y="240" text-anchor="middle" class="boxT">webhooks / 内部 hooks</text>
    <text x="1019" y="255" text-anchor="middle" class="boxF">config: hooks</text>

    <rect x="1176" y="220" width="294" height="40" class="box" fill="#fff" stroke="#a5b4fc"/>
    <text x="1323" y="240" text-anchor="middle" class="boxT">用户白名单 / bindings</text>
    <text x="1323" y="255" text-anchor="middle" class="boxF">*_ALLOWED_USERS · config: bindings</text>
  </g>

  <line x1="760" y1="276" x2="760" y2="308" stroke="#7c2d12" stroke-width="2" marker-end="url(#arrowDown)"/>
  <text x="772" y="296" class="flowLbl">归一化消息 → 路由到 Agent 会话</text>

  <!-- ============ LAYER 2: AGENT CORE ============ -->
  <rect x="40" y="314" width="1440" height="150" rx="12" fill="#fef2f2" stroke="#ef4444" stroke-width="1.6"/>
  <text x="60" y="342" class="layerName" fill="#b91c1c">② Agent 核心层 / Agent Core</text>
  <text x="60" y="362" class="layerTag" fill="#ef4444">config: agents · 单/多 Agent 运行单元，持有人格与工作区指令</text>

  <rect x="60" y="374" width="300" height="76" class="box" fill="#fff" stroke="#ef4444" stroke-width="2.2"/>
  <text x="210" y="398" text-anchor="middle" class="boxT">Agent Runtime</text>
  <text x="210" y="416" text-anchor="middle" class="boxF">agents.defaults.*</text>
  <text x="210" y="434" text-anchor="middle" class="boxF">主循环：推理 ↔ 工具调用</text>

  <rect x="378" y="374" width="270" height="76" class="box" fill="#fff" stroke="#f87171"/>
  <text x="513" y="398" text-anchor="middle" class="boxT">多 Agent 编排</text>
  <text x="513" y="416" text-anchor="middle" class="boxF">agents[] (multi-agent list)</text>
  <text x="513" y="434" text-anchor="middle" class="boxF">autoThread · 子 Agent</text>

  <rect x="666" y="374" width="270" height="76" class="box" fill="#fff" stroke="#f87171"/>
  <text x="801" y="398" text-anchor="middle" class="boxT">人格 Persona</text>
  <text x="801" y="416" text-anchor="middle" class="boxF">SOUL.md</text>
  <text x="801" y="434" text-anchor="middle" class="boxF">assistant identity (ui)</text>

  <rect x="954" y="374" width="270" height="76" class="box" fill="#fff" stroke="#f87171"/>
  <text x="1089" y="398" text-anchor="middle" class="boxT">工作区指令</text>
  <text x="1089" y="416" text-anchor="middle" class="boxF">workspace/AGENTS.md</text>
  <text x="1089" y="434" text-anchor="middle" class="boxF">agents.defaults.workspace</text>

  <rect x="1242" y="374" width="222" height="76" class="box" fill="#fff" stroke="#f87171"/>
  <text x="1353" y="398" text-anchor="middle" class="boxT">默认模型绑定</text>
  <text x="1353" y="416" text-anchor="middle" class="boxF">agents.defaults.models</text>
  <text x="1353" y="434" text-anchor="middle" class="boxF">modelId</text>

  <line x1="760" y1="464" x2="760" y2="496" stroke="#7c2d12" stroke-width="2" marker-end="url(#arrowDown)"/>
  <text x="772" y="484" class="flowLbl">每轮：压缩上下文 / 决定思考深度 / 审批闸门</text>

  <!-- ============ LAYER 3: RUNTIME CONTROL ============ -->
  <rect x="40" y="502" width="1440" height="146" rx="12" fill="#fffbeb" stroke="#f59e0b" stroke-width="1.6"/>
  <text x="60" y="530" class="layerName" fill="#b45309">③ 运行时控制 / Runtime Control</text>
  <text x="60" y="550" class="layerTag" fill="#f59e0b">config: agents.defaults (compaction/context/thinking) · approvals · session</text>

  <g>
    <rect x="60" y="562" width="220" height="74" class="box" fill="#fff" stroke="#fbbf24"/>
    <text x="170" y="586" text-anchor="middle" class="boxT">上下文压缩 / 紧凑化</text>
    <text x="170" y="604" text-anchor="middle" class="boxF">agents.defaults.compaction</text>
    <text x="170" y="620" text-anchor="middle" class="boxF">compression</text>

    <rect x="292" y="562" width="220" height="74" class="box" fill="#fff" stroke="#fbbf24"/>
    <text x="402" y="586" text-anchor="middle" class="boxT">上下文管理</text>
    <text x="402" y="604" text-anchor="middle" class="boxF">agents.defaults.context</text>

    <rect x="524" y="562" width="220" height="74" class="box" fill="#fff" stroke="#fbbf24"/>
    <text x="634" y="586" text-anchor="middle" class="boxT">思考 / 推理深度</text>
    <text x="634" y="604" text-anchor="middle" class="boxF">thinkingDefault</text>
    <text x="634" y="620" text-anchor="middle" class="boxF">reasoning_effort</text>

    <rect x="756" y="562" width="240" height="74" class="box" fill="#fff" stroke="#fbbf24" stroke-width="2"/>
    <text x="876" y="586" text-anchor="middle" class="boxT">审批 / 沙箱闸门</text>
    <text x="876" y="604" text-anchor="middle" class="boxF">approvals (mode + rules)</text>
    <text x="876" y="620" text-anchor="middle" class="boxF">exec-approvals.json</text>

    <rect x="1008" y="562" width="220" height="74" class="box" fill="#fff" stroke="#fbbf24"/>
    <text x="1118" y="586" text-anchor="middle" class="boxT">会话管理</text>
    <text x="1118" y="604" text-anchor="middle" class="boxF">session / session_reset</text>
    <text x="1118" y="620" text-anchor="middle" class="boxF">daily / idle 重置</text>

    <rect x="1240" y="562" width="224" height="74" class="box" fill="#fff" stroke="#fbbf24"/>
    <text x="1352" y="586" text-anchor="middle" class="boxT">诊断</text>
    <text x="1352" y="604" text-anchor="middle" class="boxF">diagnostics</text>
    <text x="1352" y="620" text-anchor="middle" class="boxF">verbose</text>
  </g>

  <line x1="760" y1="648" x2="760" y2="680" stroke="#7c2d12" stroke-width="2" marker-end="url(#arrowDown)"/>
  <text x="772" y="668" class="flowLbl">调用工具 / 技能 / MCP / 读写记忆</text>

  <!-- ============ LAYER 4: CAPABILITIES ============ -->
  <rect x="40" y="686" width="1440" height="468" rx="12" fill="#ecfdf5" stroke="#10b981" stroke-width="1.6"/>
  <text x="60" y="714" class="layerName" fill="#047857">④ 能力层 / Capabilities</text>
  <text x="60" y="734" class="layerTag" fill="#10b981">config: tools · skills · mcp · memory · hooks · cron · browser</text>

  <!-- 4a TOOLS -->
  <rect x="60" y="748" width="450" height="190" rx="9" fill="#f0fdf4" stroke="#34d399" stroke-width="1.4" stroke-dasharray="5 3"/>
  <text x="76" y="772" class="grpName">▸ 工具系统 Tools (config: tools)</text>
  <rect x="76" y="784" width="200" height="64" class="box" fill="#fff" stroke="#34d399"/>
  <text x="176" y="806" text-anchor="middle" class="boxT">exec / 终端</text>
  <text x="176" y="823" text-anchor="middle" class="boxF">terminal · timeoutSec</text>
  <text x="176" y="839" text-anchor="middle" class="boxF">sandbox</text>
  <rect x="290" y="784" width="204" height="64" class="box" fill="#fff" stroke="#34d399"/>
  <text x="392" y="806" text-anchor="middle" class="boxT">Web 搜索</text>
  <text x="392" y="823" text-anchor="middle" class="boxF">tools.web.search</text>
  <text x="392" y="839" text-anchor="middle" class="boxF">brave.apiKey</text>
  <rect x="76" y="858" width="200" height="64" class="box" fill="#fff" stroke="#34d399"/>
  <text x="176" y="880" text-anchor="middle" class="boxT">浏览器自动化</text>
  <text x="176" y="897" text-anchor="middle" class="boxF">config: browser</text>
  <text x="176" y="913" text-anchor="middle" class="boxF">headless · human_delay</text>
  <rect x="290" y="858" width="204" height="64" class="box" fill="#fff" stroke="#34d399"/>
  <text x="392" y="880" text-anchor="middle" class="boxT">TTS / 语音</text>
  <text x="392" y="897" text-anchor="middle" class="boxF">tts · voiceId</text>
  <text x="392" y="913" text-anchor="middle" class="boxF">workspace/tts/</text>

  <!-- 4b SKILLS -->
  <rect x="528" y="748" width="290" height="190" rx="9" fill="#f0fdf4" stroke="#34d399" stroke-width="1.4" stroke-dasharray="5 3"/>
  <text x="544" y="772" class="grpName">▸ 技能 Skills (config: skills)</text>
  <rect x="544" y="784" width="258" height="58" class="box" fill="#fff" stroke="#34d399"/>
  <text x="673" y="806" text-anchor="middle" class="boxT">技能注册表</text>
  <text x="673" y="824" text-anchor="middle" class="boxF">skills.entries (enabled/config/env)</text>
  <rect x="544" y="852" width="258" height="36" class="box" fill="#fff" stroke="#6ee7b7"/>
  <text x="673" y="875" text-anchor="middle" class="boxF">用户技能 ~/.openclaw/skills/</text>
  <rect x="544" y="896" width="258" height="36" class="box" fill="#fff" stroke="#6ee7b7"/>
  <text x="673" y="919" text-anchor="middle" class="boxF">SKILL.md (agentskills.io 标准)</text>

  <!-- 4c MCP + HOOKS + CRON -->
  <rect x="836" y="748" width="290" height="190" rx="9" fill="#f0fdf4" stroke="#34d399" stroke-width="1.4" stroke-dasharray="5 3"/>
  <text x="852" y="772" class="grpName">▸ 集成 Integrations</text>
  <rect x="852" y="784" width="258" height="44" class="box" fill="#fff" stroke="#34d399"/>
  <text x="981" y="804" text-anchor="middle" class="boxT">MCP Servers</text>
  <text x="981" y="820" text-anchor="middle" class="boxF">config: mcp / mcp_servers</text>
  <rect x="852" y="836" width="258" height="44" class="box" fill="#fff" stroke="#34d399"/>
  <text x="981" y="856" text-anchor="middle" class="boxT">Cron / 定时任务</text>
  <text x="981" y="872" text-anchor="middle" class="boxF">config: cron</text>
  <rect x="852" y="888" width="258" height="44" class="box" fill="#fff" stroke="#34d399"/>
  <text x="981" y="908" text-anchor="middle" class="boxT">Hooks / Webhooks</text>
  <text x="981" y="924" text-anchor="middle" class="boxF">config: hooks (internal/webhook/gmail)</text>

  <!-- 4d MEMORY -->
  <rect x="1144" y="748" width="320" height="190" rx="9" fill="#f0fdf4" stroke="#34d399" stroke-width="1.4" stroke-dasharray="5 3"/>
  <text x="1160" y="772" class="grpName">▸ 记忆系统 Memory (config: memory)</text>
  <rect x="1160" y="784" width="288" height="58" class="box" fill="#fff" stroke="#34d399" stroke-width="2"/>
  <text x="1304" y="806" text-anchor="middle" class="boxT">记忆后端</text>
  <text x="1304" y="824" text-anchor="middle" class="boxF">QMD · vector search · citations</text>
  <rect x="1160" y="852" width="140" height="36" class="box" fill="#fff" stroke="#6ee7b7"/>
  <text x="1230" y="875" text-anchor="middle" class="boxF">MEMORY.md</text>
  <rect x="1308" y="852" width="140" height="36" class="box" fill="#fff" stroke="#6ee7b7"/>
  <text x="1378" y="875" text-anchor="middle" class="boxF">USER.md</text>
  <rect x="1160" y="896" width="288" height="36" class="box" fill="#fff" stroke="#6ee7b7"/>
  <text x="1304" y="919" text-anchor="middle" class="boxF">每日记忆 workspace/memory/*.json</text>

  <!-- 4e PLUGINS full row -->
  <rect x="60" y="954" width="1404" height="86" rx="9" fill="#f0fdf4" stroke="#34d399" stroke-width="1.4" stroke-dasharray="5 3"/>
  <text x="76" y="978" class="grpName">▸ 插件系统 Plugins (config: plugins · 可安装扩展，能力层的横向扩展点)</text>
  <rect x="76" y="990" width="260" height="40" class="box" fill="#fff" stroke="#34d399"/>
  <text x="206" y="1015" text-anchor="middle" class="boxF">plugins (config + installed extensions)</text>
  <rect x="350" y="990" width="260" height="40" class="box" fill="#fff" stroke="#6ee7b7"/>
  <text x="480" y="1015" text-anchor="middle" class="boxF">每插件 enabled / config / env</text>
  <text x="640" y="1015" class="note" font-size="11.5">插件可向工具 / 渠道 / 记忆 / 模型各子系统注入能力（OpenClaw 的主要扩展机制）</text>

  <!-- 4f todo -->
  <rect x="60" y="1056" width="1404" height="80" rx="9" fill="#f0fdf4" stroke="#34d399" stroke-width="1.4" stroke-dasharray="5 3"/>
  <text x="76" y="1080" class="grpName">▸ 任务状态 Task State</text>
  <rect x="76" y="1092" width="300" height="34" class="box" fill="#fff" stroke="#6ee7b7"/>
  <text x="226" y="1114" text-anchor="middle" class="boxF">workspace/todo.json (待办/计划)</text>
  <text x="400" y="1114" class="note" font-size="11.5">沙箱与权限：exec-approvals.json + approvals.rules 在工具执行前完成审批；危险命令需匹配 allowlist</text>

  <line x1="760" y1="1154" x2="760" y2="1186" stroke="#7c2d12" stroke-width="2" marker-end="url(#arrowDown)"/>
  <text x="772" y="1174" class="flowLbl">统一模型调用</text>

  <!-- ============ LAYER 5: MODEL ============ -->
  <rect x="40" y="1192" width="1440" height="140" rx="12" fill="#eff6ff" stroke="#3b82f6" stroke-width="1.6"/>
  <text x="60" y="1220" class="layerName" fill="#1d4ed8">⑤ 模型层 / Model Providers</text>
  <text x="60" y="1240" class="layerTag" fill="#3b82f6">config: model / models · custom_providers · providers</text>

  <rect x="60" y="1252" width="300" height="64" class="box" fill="#fff" stroke="#3b82f6" stroke-width="2.2"/>
  <text x="210" y="1276" text-anchor="middle" class="boxT">自定义 Provider 定义</text>
  <text x="210" y="1294" text-anchor="middle" class="boxF">custom_providers / providers</text>
  <text x="210" y="1310" text-anchor="middle" class="boxF">baseUrl · apiType · headers</text>

  <rect x="374" y="1252" width="220" height="64" class="box" fill="#fff" stroke="#60a5fa"/>
  <text x="484" y="1276" text-anchor="middle" class="boxT">Provider API Keys</text>
  <text x="484" y="1294" text-anchor="middle" class="boxF">apiKey / api_key</text>
  <text x="484" y="1310" text-anchor="middle" class="boxF">env: *_API_KEY</text>

  <rect x="608" y="1252" width="220" height="64" class="box" fill="#fff" stroke="#60a5fa"/>
  <text x="718" y="1276" text-anchor="middle" class="boxT">默认模型</text>
  <text x="718" y="1294" text-anchor="middle" class="boxF">model / modelId</text>

  <rect x="842" y="1252" width="280" height="64" class="box" fill="#fff" stroke="#60a5fa"/>
  <text x="982" y="1276" text-anchor="middle" class="boxT">API 类型适配</text>
  <text x="982" y="1294" text-anchor="middle" class="boxF">apiType (openai / anthropic / ...)</text>
  <text x="982" y="1310" text-anchor="middle" class="boxF">timeout · headers</text>

  <rect x="1136" y="1252" width="328" height="64" class="box" fill="#fff" stroke="#60a5fa"/>
  <text x="1300" y="1276" text-anchor="middle" class="boxT">环境变量注入</text>
  <text x="1300" y="1294" text-anchor="middle" class="boxF">config: env</text>
  <text x="1300" y="1310" text-anchor="middle" class="boxF">运行时密钥/参数注入各 provider</text>

  <line x1="760" y1="1332" x2="760" y2="1364" stroke="#7c2d12" stroke-width="2" marker-end="url(#arrowDown)"/>
  <text x="772" y="1352" class="flowLbl">持久化状态 / 配置 / 日志</text>

  <!-- ============ LAYER 6: STATE / INFRA ============ -->
  <rect x="40" y="1370" width="1440" height="234" rx="12" fill="#f5f5f4" stroke="#78716c" stroke-width="1.6"/>
  <text x="60" y="1398" class="layerName" fill="#44403c">⑥ 状态 &amp; 基础设施 / State &amp; Infrastructure</text>
  <text x="60" y="1418" class="layerTag" fill="#78716c">~/.openclaw/ 目录（旧名 ~/.clawdbot, ~/.moltbot）· 配置文件 · UI · 日志</text>

  <!-- config files row -->
  <rect x="60" y="1430" width="690" height="76" rx="8" fill="#fff" stroke="#a8a29e" stroke-width="1.6"/>
  <text x="80" y="1452" class="boxT">配置文件</text>
  <g class="boxF" font-size="11.5">
    <text x="80" y="1474">openclaw.json  (主配置，旧名 clawdbot.json / moltbot.json)</text>
    <text x="80" y="1494">exec-approvals.json  (命令审批白名单)</text>
    <text x="430" y="1494">config.* (YAML/JSON)</text>
  </g>

  <rect x="766" y="1430" width="698" height="76" rx="8" fill="#fff" stroke="#a8a29e" stroke-width="1.6"/>
  <text x="786" y="1452" class="boxT">工作区 workspace/  (新版 workspace-main/ · 回退 workspace.default/)</text>
  <g class="boxF" font-size="11.5">
    <text x="786" y="1474">SOUL.md · MEMORY.md · USER.md · AGENTS.md · todo.json</text>
    <text x="786" y="1494">memory/*.json · tts/</text>
  </g>

  <g>
    <rect x="60" y="1518" width="220" height="68" class="box" fill="#fff" stroke="#a8a29e"/>
    <text x="170" y="1540" text-anchor="middle" class="boxT">会话存储</text>
    <text x="170" y="1557" text-anchor="middle" class="boxF">~/.openclaw/sessions/</text>
    <text x="170" y="1573" text-anchor="middle" class="boxF">config: session</text>

    <rect x="292" y="1518" width="220" height="68" class="box" fill="#fff" stroke="#a8a29e"/>
    <text x="402" y="1540" text-anchor="middle" class="boxT">日志 / 诊断</text>
    <text x="402" y="1557" text-anchor="middle" class="boxF">logs/ · config: logging</text>
    <text x="402" y="1573" text-anchor="middle" class="boxF">diagnostics</text>

    <rect x="524" y="1518" width="220" height="68" class="box" fill="#fff" stroke="#a8a29e"/>
    <text x="634" y="1540" text-anchor="middle" class="boxT">记忆存储</text>
    <text x="634" y="1557" text-anchor="middle" class="boxF">~/.openclaw/memory/</text>
    <text x="634" y="1573" text-anchor="middle" class="boxF">QMD / vector store</text>

    <rect x="756" y="1518" width="240" height="68" class="box" fill="#fff" stroke="#a8a29e"/>
    <text x="876" y="1540" text-anchor="middle" class="boxT">UI / 身份</text>
    <text x="876" y="1557" text-anchor="middle" class="boxF">config: ui (theme)</text>
    <text x="876" y="1573" text-anchor="middle" class="boxF">assistant identity · display</text>

    <rect x="1008" y="1518" width="220" height="68" class="box" fill="#fff" stroke="#a8a29e"/>
    <text x="1118" y="1540" text-anchor="middle" class="boxT">Node.js 运行时</text>
    <text x="1118" y="1557" text-anchor="middle" class="boxF">node.exe / openclaw.exe</text>
    <text x="1118" y="1573" text-anchor="middle" class="boxF">clawd.exe</text>

    <rect x="1240" y="1518" width="224" height="68" class="box" fill="#fff" stroke="#a8a29e"/>
    <text x="1352" y="1540" text-anchor="middle" class="boxT">系统服务</text>
    <text x="1352" y="1557" text-anchor="middle" class="boxF">openclaw-gateway</text>
    <text x="1352" y="1573" text-anchor="middle" class="boxF">.service (systemd)</text>
  </g>

  <!-- ============ LEGEND + PROVENANCE ============ -->
  <rect x="40" y="1624" width="900" height="300" rx="10" fill="#ffffff" stroke="#d6d3d1" stroke-width="1.4"/>
  <text x="60" y="1652" class="grpName" font-size="16">图例 / Legend</text>
  <rect x="60" y="1666" width="22" height="16" rx="3" fill="#eef2ff" stroke="#6366f1"/>
  <text x="90" y="1679" class="note">① 渠道接入层 — Gateway + 各消息平台</text>
  <rect x="60" y="1692" width="22" height="16" rx="3" fill="#fef2f2" stroke="#ef4444"/>
  <text x="90" y="1705" class="note">② Agent 核心 — 运行单元 / 人格 / 多 Agent</text>
  <rect x="60" y="1718" width="22" height="16" rx="3" fill="#fffbeb" stroke="#f59e0b"/>
  <text x="90" y="1731" class="note">③ 运行时控制 — 压缩 / 思考 / 审批 / 会话</text>
  <rect x="60" y="1744" width="22" height="16" rx="3" fill="#ecfdf5" stroke="#10b981"/>
  <text x="90" y="1757" class="note">④ 能力层 — 工具 / 技能 / MCP / 记忆 / 插件</text>
  <rect x="60" y="1770" width="22" height="16" rx="3" fill="#eff6ff" stroke="#3b82f6"/>
  <text x="90" y="1783" class="note">⑤ 模型层 — provider 定义 / API 适配</text>
  <rect x="60" y="1796" width="22" height="16" rx="3" fill="#f5f5f4" stroke="#78716c"/>
  <text x="90" y="1809" class="note">⑥ 状态 &amp; 基础设施 — 配置文件 / 工作区 / 存储</text>
  <line x1="60" y1="1830" x2="120" y2="1830" stroke="#7c2d12" stroke-width="2" marker-end="url(#arrowDown)"/>
  <text x="132" y="1835" class="note">粗箭头 = 层间主调用方向（自顶向下）</text>
  <text x="60" y="1864" class="note">等宽字体 = OpenClaw 真实配置键 / 目录（openclaw.json + ~/.openclaw/）</text>
  <text x="60" y="1886" class="note">技术栈：Node.js / TypeScript · 配置驱动（JSON）· 单网关多渠道</text>
  <text x="60" y="1908" class="note">扩展机制：plugins（横向）+ skills + mcp_servers</text>

  <!-- provenance note -->
  <rect x="956" y="1624" width="524" height="300" rx="10" fill="#fff7ed" stroke="#fb923c" stroke-width="1.6"/>
  <text x="976" y="1652" class="grpName" font-size="16" fill="#c2410c">证据来源与方法（重要）</text>
  <text x="976" y="1680" class="note">本仓库不含 OpenClaw 源码。本架构图是从 Hermes 仓</text>
  <text x="976" y="1700" class="note">库中两处<tspan font-weight="700">代码证据</tspan>逆向重建的：</text>
  <text x="976" y="1726" class="boxF" font-size="11">① optional-skills/migration/openclaw-migration/</text>
  <text x="976" y="1744" class="boxF" font-size="11">   scripts/openclaw_to_hermes.py (3136 行)</text>
  <text x="976" y="1762" class="note" font-size="11.5">   — 读取 OpenClaw 全量 config schema 与目录布局</text>
  <text x="976" y="1786" class="boxF" font-size="11">② "Ported from openclaw/openclaw#NNNNN" 注释</text>
  <text x="976" y="1804" class="note" font-size="11.5">   (anthropic_adapter / error_classifier / gateway 等)</text>
  <text x="976" y="1822" class="note" font-size="11.5">   — 证明 Hermes 是 OpenClaw 的 Python 演进/分叉版</text>
  <text x="976" y="1850" class="note">因此每个方框都对应迁移代码读取的<tspan font-weight="700">真实配置键或</tspan></text>
  <text x="976" y="1870" class="note"><tspan font-weight="700">目录</tspan>（已 grep 校验），而非凭空臆测。内部函数级</text>
  <text x="976" y="1890" class="note">实现细节因无源码无法标注 —— 如需精确到文件/类，</text>
  <text x="976" y="1910" class="note">请提供 openclaw/openclaw 源码仓库，我再据实补全。</text>
</svg>
